<svg width="29" height="29" viewBox="0 0 29 29" fill="none" xmlns="http://www.w3.org/2000/svg">
<path d="M12.3854 3.625C7.54725 3.625 3.625 7.54725 3.625 12.3854C3.625 17.2236 7.54725 21.1458 12.3854 21.1458C14.3964 21.1489 16.3467 20.4572 17.9063 19.1877L23.8277 25.1092C23.9113 25.1957 24.0113 25.2648 24.1219 25.3123C24.2325 25.3598 24.3514 25.3848 24.4717 25.3858C24.592 25.3868 24.7114 25.3639 24.8227 25.3183C24.9341 25.2728 25.0353 25.2055 25.1204 25.1204C25.2055 25.0353 25.2728 24.9341 25.3183 24.8227C25.3639 24.7114 25.3868 24.592 25.3858 24.4717C25.3848 24.3514 25.3598 24.2325 25.3123 24.1219C25.2648 24.0113 25.1957 23.9113 25.1092 23.8277L19.1883 17.9063C20.4576 16.3466 21.1491 14.3963 21.1458 12.3854C21.1458 7.54725 17.2236 3.625 12.3854 3.625ZM5.4375 12.3854C5.4375 8.54835 8.54835 5.4375 12.3854 5.4375C16.2225 5.4375 19.3333 8.54835 19.3333 12.3854C19.3333 16.2225 16.2225 19.3333 12.3854 19.3333C8.54835 19.3333 5.4375 16.2225 5.4375 12.3854Z" fill="#006488"/>
</svg>
