<svg width="29" height="29" viewBox="0 0 29 29" fill="none" xmlns="http://www.w3.org/2000/svg">
<path d="M13.2548 2.28738C13.5913 1.96922 14.0369 1.79195 14.5 1.79195C14.9631 1.79195 15.4087 1.96922 15.7452 2.28738L24.5249 10.5868C25.0687 11.0998 25.375 11.8157 25.375 12.5624V22.6581C25.375 23.3791 25.0886 24.0706 24.5787 24.5805C24.0688 25.0904 23.3773 25.3768 22.6562 25.3768H19.0312C18.6741 25.3768 18.3204 25.3064 17.9904 25.1697C17.6604 25.0329 17.3606 24.8325 17.1082 24.5799C16.8557 24.3272 16.6555 24.0273 16.5189 23.6972C16.3824 23.3672 16.3123 23.0134 16.3125 22.6563V18.125C16.3125 17.8847 16.217 17.6541 16.0471 17.4842C15.8771 17.3142 15.6466 17.2188 15.4062 17.2188H13.5938C13.3534 17.2188 13.1229 17.3142 12.9529 17.4842C12.783 17.6541 12.6875 17.8847 12.6875 18.125V22.6563C12.6875 23.3773 12.4011 24.0688 11.8912 24.5787C11.3813 25.0886 10.6898 25.375 9.96875 25.375H6.34375C5.62269 25.375 4.93117 25.0886 4.4213 24.5787C3.91144 24.0688 3.625 23.3773 3.625 22.6563V12.5606C3.625 11.8139 3.93313 11.0979 4.47688 10.585L13.2548 2.28375V2.28738ZM14.5 3.60325L5.72025 11.9045C5.63112 11.989 5.56009 12.0907 5.51149 12.2035C5.46288 12.3163 5.43771 12.4378 5.4375 12.5606V22.6563C5.4375 22.8966 5.53298 23.1271 5.70293 23.2971C5.87289 23.467 6.1034 23.5625 6.34375 23.5625H9.96875C10.2091 23.5625 10.4396 23.467 10.6096 23.2971C10.7795 23.1271 10.875 22.8966 10.875 22.6563V18.125C10.875 17.4039 11.1614 16.7124 11.6713 16.2026C12.1812 15.6927 12.8727 15.4063 13.5938 15.4063H15.4062C16.1273 15.4063 16.8188 15.6927 17.3287 16.2026C17.8386 16.7124 18.125 17.4039 18.125 18.125V22.6563C18.125 22.8966 18.2205 23.1271 18.3904 23.2971C18.5604 23.467 18.7909 23.5625 19.0312 23.5625H22.6562C22.8966 23.5625 23.1271 23.467 23.2971 23.2971C23.467 23.1271 23.5625 22.8966 23.5625 22.6563V12.5606C23.5625 12.4375 23.5375 12.3157 23.4889 12.2025C23.4403 12.0894 23.3691 11.9874 23.2797 11.9027L14.5 3.60325Z" fill="#006488"/>
</svg>
